<svg xmlns="http://www.w3.org/2000/svg" width="32" height="32" viewBox="0 0 32 32">
  <path d="M2.5 12.5 11 4l10 10-8.5 8.5Z" fill="{{ColorPalette.White}}" stroke="{{ColorPalette.MidnightBlue}}" stroke-width="2.5" stroke-linejoin="round"/>
  <path d="m6.5 8 10.5 10.5" fill="none" stroke="{{ColorPalette.MidnightBlue}}" stroke-width="2.5" stroke-linecap="round"/>
  <path d="M18.5 20c0 2 1.2 3.5 2.8 3.5S24 22 24 20c0-1.4-2.7-4.7-2.7-4.7S18.5 18.6 18.5 20Z" fill="{{ColorPalette.CornflowerBlue}}" stroke="{{ColorPalette.White}}" stroke-width="1.2"/>
  <g fill="none" stroke-linecap="square">
    <path d="M26 19v5m0 4v4M19 26h5m4 0h4" stroke="{{ColorPalette.White}}" stroke-width="4"/>
    <path d="M26 19v5m0 4v4M19 26h5m4 0h4" stroke="{{ColorPalette.MidnightBlue}}" stroke-width="2"/>
  </g>
  <rect x="25" y="25" width="2" height="2" fill="{{ColorPalette.CornflowerBlue}}"/>
</svg>
